<svg width="34" height="34" viewBox="0 0 34 34" fill="none" xmlns="http://www.w3.org/2000/svg">
<rect x="1.41667" y="1.41667" width="31.1667" height="31.1667" rx="7.08333" stroke="#7A7D7E" stroke-width="2.83333"/>
<path d="M17.3678 7.98568C16.2099 7.96762 15.0599 8.18009 13.9848 8.61073C12.9097 9.04137 11.9311 9.68158 11.1058 10.4941C10.2805 11.3066 9.62511 12.2751 9.17775 13.3434C8.73039 14.4116 8.5 15.5581 8.5 16.7162C8.5 17.8744 8.73039 19.0209 9.17775 20.0891C9.62511 21.1574 10.2805 22.1259 11.1058 22.9384C11.9311 23.7509 12.9097 24.3911 13.9848 24.8218C15.0599 25.2524 16.2099 25.4649 17.3678 25.4468C19.6597 25.4111 21.8457 24.4755 23.4538 22.8421C25.0619 21.2087 25.9633 19.0084 25.9633 16.7162C25.9633 14.4241 25.0619 12.2238 23.4538 10.5904C21.8457 8.95699 19.6597 8.02144 17.3678 7.98568ZM17.3678 11.0478C18.1121 11.0478 18.849 11.1944 19.5366 11.4792C20.2242 11.764 20.849 12.1815 21.3753 12.7077C21.9015 13.234 22.319 13.8588 22.6038 14.5464C22.8886 15.234 23.0352 15.9709 23.0352 16.7152C23.0352 17.4594 22.8886 18.1964 22.6038 18.884C22.319 19.5716 21.9015 20.1964 21.3753 20.7226C20.849 21.2489 20.2242 21.6663 19.5366 21.9512C18.849 22.236 18.1121 22.3826 17.3678 22.3826C15.8648 22.3826 14.4232 21.7855 13.3604 20.7226C12.2976 19.6598 11.7005 18.2183 11.7005 16.7152C11.7005 15.2121 12.2976 13.7706 13.3604 12.7077C14.4232 11.6449 15.8648 11.0478 17.3678 11.0478Z" fill="#7A7D7E"/>
<path d="M25.5868 5.81544C25.8343 5.71292 26.0996 5.66016 26.3675 5.66016C26.9086 5.66016 27.4274 5.87508 27.81 6.25766C28.1926 6.64023 28.4075 7.15912 28.4075 7.70016C28.4075 8.2412 28.1926 8.76008 27.81 9.14265C27.4274 9.52523 26.9086 9.74016 26.3675 9.74016C26.0996 9.74016 25.8343 9.68739 25.5868 9.58487C25.3393 9.48235 25.1144 9.33209 24.925 9.14265C24.7356 8.95322 24.5853 8.72833 24.4828 8.48083C24.3803 8.23333 24.3275 7.96805 24.3275 7.70016C24.3275 7.43226 24.3803 7.16699 24.4828 6.91948C24.5853 6.67198 24.7356 6.44709 24.925 6.25766C25.1144 6.06823 25.3393 5.91796 25.5868 5.81544Z" fill="#7A7D7E"/>
</svg>
