<svg width="34" height="34" viewBox="0 0 34 34" fill="none" xmlns="http://www.w3.org/2000/svg">
<rect x="1.41667" y="1.41667" width="31.1667" height="31.1667" rx="7.08333" stroke="#7A7D7E" stroke-width="2.83333"/>
<path d="M9.9016 12.1638C11.1422 12.1638 12.1478 11.1581 12.1478 9.9176C12.1478 8.67705 11.1422 7.67139 9.9016 7.67139C8.66106 7.67139 7.6554 8.67705 7.6554 9.9176C7.6554 11.1581 8.66106 12.1638 9.9016 12.1638Z" fill="#7A7D7E"/>
<path d="M14.2688 13.8659V26.3279H18.138V20.1652C18.138 18.539 18.444 16.9642 20.4602 16.9642C22.4488 16.9642 22.4734 18.8234 22.4734 20.2678V26.3289H26.3447V19.4948C26.3447 16.1378 25.622 13.5579 21.6983 13.5579C19.8145 13.5579 18.5518 14.5917 18.0354 15.5701H17.983V13.8659H14.2688ZM7.96338 13.8659H11.8388V26.3279H7.96338V13.8659Z" fill="#7A7D7E"/>
</svg>
