<svg width="36" height="26" viewBox="0 0 36 26" fill="none" xmlns="http://www.w3.org/2000/svg">
<path d="M2.57143 0H15.4286C16.1106 0 16.7646 0.270918 17.2468 0.753154C17.7291 1.23539 18 1.88944 18 2.57143C18 3.25341 17.7291 3.90747 17.2468 4.3897C16.7646 4.87194 16.1106 5.14286 15.4286 5.14286H2.57143C1.88944 5.14286 1.23539 4.87194 0.753154 4.3897C0.270918 3.90747 0 3.25341 0 2.57143C0 1.88944 0.270918 1.23539 0.753154 0.753154C1.23539 0.270918 1.88944 0 2.57143 0ZM20.5714 20.5714H33.4286C34.1106 20.5714 34.7646 20.8423 35.2468 21.3246C35.7291 21.8068 36 22.4609 36 23.1429C36 23.8248 35.7291 24.4789 35.2468 24.9611C34.7646 25.4434 34.1106 25.7143 33.4286 25.7143H20.5714C19.8894 25.7143 19.2354 25.4434 18.7532 24.9611C18.2709 24.4789 18 23.8248 18 23.1429C18 22.4609 18.2709 21.8068 18.7532 21.3246C19.2354 20.8423 19.8894 20.5714 20.5714 20.5714ZM2.57143 10.2857H33.4286C34.1106 10.2857 34.7646 10.5566 35.2468 11.0389C35.7291 11.5211 36 12.1752 36 12.8571C36 13.5391 35.7291 14.1932 35.2468 14.6754C34.7646 15.1577 34.1106 15.4286 33.4286 15.4286H2.57143C1.88944 15.4286 1.23539 15.1577 0.753154 14.6754C0.270918 14.1932 0 13.5391 0 12.8571C0 12.1752 0.270918 11.5211 0.753154 11.0389C1.23539 10.5566 1.88944 10.2857 2.57143 10.2857Z" fill="#041D25"/>
</svg>
