<svg width="27" height="28" viewBox="0 0 27 28" fill="none" xmlns="http://www.w3.org/2000/svg">
<path d="M13.5189 10.5589L22.6103 1.46751C23.0926 0.985274 23.7466 0.714354 24.4286 0.714355C25.1106 0.714356 25.7646 0.985272 26.2469 1.46751C26.7291 1.94974 27 2.6038 27 3.28578C27 3.96777 26.7291 4.62182 26.2469 5.10406L17.1554 14.1955L26.2468 23.2869C26.7291 23.7691 27 24.4232 27 25.1052C27 25.7871 26.7291 26.4412 26.2468 26.9234C25.7646 27.4057 25.1106 27.6766 24.4286 27.6766C23.7466 27.6766 23.0925 27.4057 22.6103 26.9234L13.5189 17.832L4.42758 26.9234C3.94534 27.4056 3.29129 27.6765 2.6093 27.6765C1.92732 27.6765 1.27327 27.4056 0.79103 26.9234C0.308793 26.4411 0.0378766 25.7871 0.0378766 25.1051C0.0378766 24.4231 0.308794 23.769 0.79103 23.2868L9.88235 14.1955L0.790996 5.10414C0.30876 4.6219 0.0378408 3.96785 0.0378418 3.28586C0.0378428 2.60388 0.308758 1.94983 0.790994 1.46759C1.27323 0.985352 1.92729 0.714436 2.60927 0.714435C3.29125 0.714434 3.94531 0.985354 4.42755 1.46759L13.5189 10.5589Z" fill="#041D25"/>
</svg>
